<?xml version="1.0" encoding="UTF-8"?><svg id="Layer_1" xmlns="http://www.w3.org/2000/svg" viewBox="0 0 275.13 136.56"><defs><style>.cls-1{fill:#1d1d1b;stroke-width:0px;}</style></defs><path class="cls-1" d="M38.7,39.4h21.39c3.8,0,7.05.59,9.77,1.79,2.72,1.19,4.76,2.88,6.12,5.07,1.36,2.19,2.04,4.81,2.04,7.88,0,3.24-.72,5.89-2.16,7.97-1.44,2.07-3.44,3.39-6,3.96v.08c2.1.34,3.91,1.08,5.42,2.21,1.51,1.14,2.68,2.63,3.5,4.47.82,1.85,1.23,3.96,1.23,6.35,0,3.46-.67,6.39-2,8.77-1.34,2.39-3.35,4.23-6.04,5.54-2.69,1.31-6.07,1.96-10.12,1.96h-23.16v-56.06ZM65.86,62.44c1.33-.65,2.32-1.55,2.96-2.68.64-1.14.96-2.53.96-4.17,0-1.76-.35-3.24-1.04-4.43-.69-1.19-1.77-2.12-3.23-2.77s-3.32-.98-5.58-.98h-12.08v16.02h13.08c1.95,0,3.59-.33,4.92-.98ZM67.09,86.3c1.39-.77,2.4-1.82,3.04-3.15.64-1.33.96-2.97.96-4.9,0-1.7-.37-3.15-1.12-4.35-.74-1.19-1.87-2.13-3.39-2.81-1.51-.68-3.24-1.02-5.19-1.02h-13.54v17.38h13.85c2.21,0,4-.38,5.39-1.15Z"/><path class="cls-1" d="M98.8,92.81c-3.95-2.33-7.04-5.68-9.27-10.05-2.23-4.37-3.35-9.46-3.35-15.25s1.09-10.96,3.27-15.33c2.18-4.37,5.25-7.74,9.2-10.1,3.95-2.36,8.47-3.53,13.54-3.53,4.36,0,8.27.91,11.74,2.73,3.46,1.82,6.17,4.37,8.12,7.67,1.95,3.3,2.93,7.07,2.93,11.33v2.72h-8.24c-.05-.62-.08-1.25-.08-1.87,0-2.84-.6-5.33-1.81-7.46-1.21-2.13-2.9-3.76-5.08-4.9-2.18-1.14-4.63-1.7-7.35-1.7-3.23,0-6.13.82-8.7,2.47-2.57,1.65-4.55,4.03-5.96,7.16-1.41,3.12-2.12,6.73-2.12,10.82s.73,7.67,2.19,10.74,3.46,5.42,6,7.07c2.54,1.65,5.42,2.47,8.66,2.47,2.82,0,5.31-.57,7.47-1.7s3.83-2.71,5.04-4.73c1.2-2.02,1.81-4.36,1.81-7.03v-1.45h8.39v2.04c0,4.2-.99,7.92-2.96,11.16-1.98,3.24-4.71,5.75-8.19,7.54-3.49,1.79-7.42,2.68-11.77,2.68-5.03,0-9.52-1.16-13.47-3.49Z"/><path class="cls-1" d="M150.43,93.62c-3.18-1.79-5.39-4.17-6.62-7.16-1.23-2.98-1.85-6.32-1.85-10.01v-.17h8.31c0,2.55.41,4.71,1.23,6.47.82,1.76,2.15,3.14,4,4.13,1.85,1,4.36,1.49,7.54,1.49s5.8-.4,7.69-1.19c1.9-.8,3.24-1.86,4.04-3.19.8-1.33,1.19-2.85,1.19-4.56s-.36-3.01-1.08-3.92-2.1-1.66-4.16-2.26c-2.05-.6-5.31-1.24-9.77-1.92-4.72-.74-8.43-1.61-11.12-2.6-2.69-.99-4.71-2.48-6.04-4.47-1.33-1.99-2-4.74-2-8.27s.85-6.52,2.54-9.16c1.69-2.64,4.12-4.68,7.27-6.13,3.15-1.45,6.91-2.17,11.27-2.17,4.87,0,8.82.77,11.85,2.3,3.03,1.53,5.22,3.78,6.58,6.73,1.36,2.95,2.04,6.67,2.04,11.16h-8.31c0-2.84-.45-5.14-1.35-6.9-.9-1.76-2.25-3.1-4.04-4-1.8-.91-4-1.36-6.62-1.36s-4.67.37-6.46,1.11c-1.8.74-3.19,1.76-4.19,3.07-1,1.31-1.5,2.76-1.5,4.34,0,1.99.33,3.48,1,4.47.67.99,2,1.8,4,2.43,2,.63,5.21,1.28,9.62,1.96,4.82.68,8.59,1.53,11.31,2.56s4.77,2.5,6.16,4.43c1.38,1.93,2.08,4.6,2.08,8.01s-.67,6.25-2,8.86c-1.33,2.61-3.63,4.7-6.89,6.26-3.26,1.56-7.63,2.34-13.12,2.34s-9.44-.89-12.62-2.68Z"/><path class="cls-1" d="M193.3,39.4h19.24c5.34,0,9.92,1.11,13.74,3.32,3.82,2.21,6.77,5.41,8.85,9.59,2.08,4.17,3.12,9.19,3.12,15.04s-.98,11.05-2.93,15.25c-1.95,4.2-4.72,7.4-8.31,9.59-3.59,2.19-7.85,3.28-12.77,3.28h-20.93v-56.06ZM221.96,84.68c2.23-1.5,3.98-3.72,5.23-6.64,1.26-2.93,1.88-6.49,1.88-10.69s-.65-7.7-1.96-10.65c-1.31-2.95-3.17-5.15-5.58-6.6-2.41-1.45-5.28-2.17-8.62-2.17h-10.46v39.02h11.54c3.08,0,5.73-.75,7.96-2.26Z"/></svg>